<?xml version="1.0" encoding="iso-8859-1"?>
<!-- Uploaded to: SVG Repo, www.svgrepo.com, Generator: SVG Repo Mixer Tools -->
<svg fill="#fff" version="1.1" id="Layer_1" xmlns="http://www.w3.org/2000/svg" xmlns:xlink="http://www.w3.org/1999/xlink" 
	 viewBox="0 0 512 512" xml:space="preserve">
<g>
	<g>
		<rect x="256" y="77.392" width="256" height="16"/>
	</g>
</g>
<g>
	<g>
		<rect x="256" y="162.72" width="213.328" height="16"/>
	</g>
</g>
<g>
	<g>
		<rect y="333.392" width="256" height="16"/>
	</g>
</g>
<g>
	<g>
		<rect x="42.672" y="418.72" width="213.328" height="16"/>
	</g>
</g>
<g>
	<g>
		<path d="M320,255.952v192h192v-192H320z M496,431.952H336v-160h160V431.952z"/>
	</g>
</g>
<g>
	<g>
		<polygon points="460.768,318.512 449.44,307.2 416,340.64 382.56,307.2 371.248,318.512 404.688,351.952 371.248,385.392 
			382.56,396.704 416,363.264 449.44,396.704 460.768,385.392 427.312,351.952 		"/>
	</g>
</g>
<g>
	<g>
		<path d="M0,64.048v192h192v-192H0z M176,240.048H16v-160h160V240.048z"/>
	</g>
</g>
<g>
	<g>
		<polygon points="140.768,126.608 129.44,115.296 96,148.752 62.56,115.296 51.248,126.608 84.688,160.064 51.248,193.504 
			62.56,204.816 96,171.376 129.44,204.816 140.768,193.504 107.312,160.064 		"/>
	</g>
</g>
</svg>