<svg xmlns="http://www.w3.org/2000/svg" xmlns:svgjs="http://svgjs.com/svgjs" xmlns:xlink="http://www.w3.org/1999/xlink" width="288" height="288"><svg xmlns="http://www.w3.org/2000/svg" width="288" height="288" viewBox="0 0 820.04 581.027"><g class="color000 svgShape" transform="matrix(.13333 0 0 -.13333 0 581.027)"><path fill="#e8e5e5" d="m 1572.46,2820.09 c 0,0 -55.96,45.83 -143.82,-90.24 -87.87,-136.07 -124.07,-216.02 -124.07,-216.02 0,0 -22.41,-28.1 -41.07,-6.32 -18.64,21.77 -41.23,80.45 -77.38,73.99 -37.49,-6.68 -53.65,-46.1 -52.82,-106.54 0.83,-60.45 -2.21,-192.94 -2.53,-204.92 -0.31,-11.76 -8.75,-28.27 -23.84,-15.47 -15.08,12.8 -97.76,126.28 -149.254,83.82 -51.5,-42.45 -21.524,-210.46 -18.594,-228.89 2.922,-18.42 -1.375,-25.73 -10.355,-29.29 -8.973,-3.58 -33.168,37.19 -58.004,68.5 -24.84,31.31 -59.129,63.26 -86.789,36.28 -27.657,-26.98 -48.082,-148.64 48.105,-359.51 l 50.969,-94.8 107.98,-5.02 c 231.742,3.3 332.962,73.82 345.522,110.37 12.55,36.55 -31,53.86 -69.93,62.91 -38.94,9.05 -86.13,13.47 -86.75,23.11 -0.62,9.64 4.15,16.65 22.06,21.89 17.9,5.25 182.58,50.06 198.91,114.76 16.33,64.72 -121.62,90.88 -139.64,99.03 -18.02,8.15 -6.71,22.85 3.78,28.17 10.69,5.41 129.14,64.86 184.12,89.98 54.99,25.12 83.7,56.59 73.7,93.33 -9.65,35.44 -72.34,30.74 -100,38.28 -27.67,7.53 -11.86,39.82 -11.86,39.82 0,0 56.77,66.93 142.15,204.58 85.37,137.64 18.21,169.05 18.21,169.05 l 1.2,-0.85" class="colore7e8e5 svgShape"/><path fill="#dbd8d8" d="m 863.914,1713.17 c 63.102,100.84 178.266,278.19 276.346,430.96 98.04,152.72 186.69,291.08 250.29,391.58 31.7,50.21 57.37,90.87 75.2,119.12 8.84,13.96 15.72,24.85 20.48,32.37 2.31,3.59 4.11,6.38 5.39,8.38 1.23,1.87 1.94,2.79 1.94,2.79 0,0 -0.51,-1.04 -1.64,-2.97 -1.22,-2.04 -2.93,-4.89 -5.12,-8.55 -4.63,-7.6 -11.34,-18.6 -19.94,-32.71 -17.35,-28.39 -42.74,-69.28 -74.31,-119.69 -63.1,-100.84 -151.43,-239.41 -249.48,-392.12 -98.08,-152.78 -213.55,-329.91 -277.152,-430.42" class="colordadbd8 svgShape"/><path fill="#dbd8d8" d="M1214.42 2498.16c.22.03.91-2.65 1.95-7.54 1.07-4.89 2.4-12.01 3.97-20.81 3.1-17.61 6.75-42.05 10.3-69.09 3.4-26.67 6.48-50.79 8.83-69.24 1.11-8.31 2.05-15.32 2.8-20.96.69-4.95.97-7.71.74-7.75-.23-.04-.94 2.64-2.02 7.53-1.05 4.89-2.38 12.01-3.86 20.83-2.92 17.65-6.26 42.12-9.8 69.16-3.6 26.63-6.84 50.72-9.33 69.15-1.15 8.31-2.13 15.32-2.91 20.96-.65 4.96-.9 7.72-.67 7.76M1252.64 2299.86c-.16.91 49.89 10.67 111.77 21.8 61.91 11.12 112.21 19.41 112.37 18.5.17-.91-49.87-10.67-111.78-21.79-61.88-11.13-112.19-19.41-112.36-18.51M1091.47 2072.09c.03.23 2.86.05 7.94-.45 5.75-.61 12.94-1.37 21.48-2.27 18.13-1.9 43.18-4.41 70.92-6.17 27.75-1.81 52.92-2.58 71.15-2.99 8.58-.21 15.8-.38 21.59-.52 5.1-.15 7.92-.33 7.92-.57.01-.23-2.81-.48-7.91-.73-5.1-.24-12.49-.48-21.62-.55-18.26-.19-43.51.21-71.34 2.03-27.82 1.76-52.91 4.65-71 7.15-9.04 1.28-16.34 2.4-21.37 3.33-5.03.9-7.79 1.51-7.76 1.74M1017.42 2243.83c.21.1 1.47-2.19 3.57-6.42 2.35-4.9 5.23-10.91 8.63-18.01 7.15-15.27 16.81-36.46 27.29-59.94 10.49-23.49 19.82-44.84 26.41-60.35 3.02-7.27 5.57-13.43 7.65-18.45 1.74-4.38 2.61-6.85 2.39-6.95-.21-.09-1.47 2.2-3.57 6.43-2.35 4.89-5.23 10.91-8.62 18.01-7.15 15.27-16.82 36.45-27.31 59.95-10.48 23.48-19.8 44.82-26.4 60.34-3.02 7.26-5.57 13.43-7.65 18.44-1.75 4.39-2.6 6.86-2.39 6.95M849.582 2060.82c.211.1 1.805-2.84 4.496-8.25 2.906-6.01 6.649-13.75 11.141-23.05 9.269-19.52 21.871-46.57 35.594-76.54 13.73-29.98 25.988-57.2 34.707-76.97 4.101-9.48 7.519-17.37 10.171-23.49 2.332-5.57 3.528-8.7 3.317-8.8-.211-.09-1.805 2.85-4.496 8.26-2.907 6.01-6.649 13.75-11.141 23.04-9.269 19.52-21.867 46.58-35.598 76.56-13.726 29.97-25.984 57.19-34.703 76.96-4.101 9.47-7.519 17.37-10.172 23.48-2.335 5.58-3.523 8.71-3.316 8.8M948.09 1849.58c.023.24 3.605.11 10.066-.3 7.051-.5 16.25-1.13 27.336-1.91 23.078-1.58 54.968-3.64 90.228-4.92 35.26-1.34 67.22-1.7 90.35-1.8 11.12-.05 20.33-.1 27.4-.14 6.47-.06 10.06-.21 10.06-.43.01-.24-3.57-.53-10.03-.87-6.47-.34-15.83-.69-27.41-.92-23.15-.51-55.17-.52-90.5.82-35.32 1.28-67.24 3.72-90.289 5.91-11.528 1.12-20.844 2.12-27.266 2.96-6.426.82-9.972 1.38-9.945 1.6M691.293 2438.7c0 0 1.176-17.2-2.801-49.29-4.289-31.81-14.539-79.37-44.937-132.33l-1.047 1.82h.094l2.078.01-1.024-1.82C578.469 2141.49 480.648 1968.01 363.559 1760.35l-1.758-3.11-1.903 3.03c-89.125 142.17-189.839 302.84-296.0855 472.32-4.9922 7.97-9.9648 15.91-14.5625 23.25l-2.2539 3.6 4.2539-.01h.0117l-2.0312-3.53c-22.7032 38.9-37.6367 81.55-44.61722 124.77-3.33984 21.62-5.214843 43.38-4.437499 64.92.585938 10.75 1.164059 21.47 1.746099 32.13 1.59765 10.57 3.1875 21.08 4.76953 31.55 16.24999 83.39 61.56249 156.53 120.87159 206.68 29.871 24.93 63.171 43.94 97.41 57.25l12.882 4.8 6.403 2.39 6.574 1.75c8.77 2.28 17.469 4.56 26.102 6.8 17.617 2.66 34.879 6.26 52.179 6.32 17.235 1.59 34.157-.03 50.77-.9 8.277-.66 16.363-2.45 24.441-3.6 4.024-.65 8.031-1.3 12.024-1.94 3.949-.83 7.797-2.03 11.672-3.02 7.714-2.09 15.363-4.16 22.921-6.21 7.321-2.79 14.567-5.55 21.727-8.29 3.562-1.4 7.184-2.63 10.641-4.17 3.386-1.69 6.757-3.38 10.105-5.06 6.691-3.38 13.297-6.73 19.832-10.03 50.711-29.5 88.781-68.03 115.016-106.17 26.426-38.28 41.078-76.01 50.109-107.22 3.809-15.85 7.668-29.83 8.828-42.36 1.739-12.42 3.446-22.9 3.352-31.5.293-8.46.515-14.94.672-19.47.129-4.38.07-6.62.07-6.62 0 0-.266 2.24-.543 6.62-.266 4.51-.645 10.97-1.133 19.41-.058 8.57-1.91 19-3.785 31.35-1.297 12.46-5.277 26.35-9.199 42.08-9.258 30.99-24.07 68.37-50.512 106.23-26.238 37.73-64.164 75.75-114.496 104.79-6.48 3.25-13.039 6.53-19.668 9.85-3.324 1.65-6.668 3.32-10.023 4.99-3.43 1.51-7.02 2.71-10.547 4.09-7.102 2.68-14.282 5.4-21.532 8.14-7.488 2-15.058 4.02-22.699 6.07-3.84.96-7.644 2.14-11.551 2.95-3.953.62-7.917 1.25-11.906 1.88-7.988 1.11-15.984 2.87-24.179 3.5-16.434.8-33.168 2.37-50.207.76-17.102-.1-34.161-3.72-51.559-6.37-8.524-2.24-17.117-4.5-25.774-6.78l-6.496-1.74-6.32-2.37-12.711-4.77C192.66 2756.15 159.797 2737.33 130.328 2712.66 71.8359 2663.02 27.1758 2590.75 11.1953 2508.41 9.63672 2498.07 8.07422 2487.68 6.50781 2477.25 5.94141 2466.71 5.375 2456.13 4.80469 2445.51c-.75781-21.27 1.10547-42.75 4.41406-64.09 6.91405-42.67 21.66015-84.77 44.06645-123.15l2.0703-3.54-4.1016.01h-.0156l1.9961 3.59c4.5976-7.34 9.5703-15.28 14.5547-23.24C173.902 2065.52 274.488 1904.78 363.504 1762.53l-3.652-.08c117.757 207.28 216.14 380.44 281.699 495.83l1.054-1.8h-.093-2.106l1.063 1.82c30.496 52.41 41.09 99.64 45.761 131.28 2.297 15.94 2.958 28.27 3.493 36.55.148 4.05.261 7.16.343 9.39.098 2.11.227 3.18.227 3.18" class="colordadbd8 svgShape"/><path fill="#dbd8d8" d="m 565.637,2442.65 c -0.082,0 -0.219,1.2 -0.41,3.54 -0.18,2.57 -0.422,6.01 -0.731,10.38 -0.141,2.31 -0.305,4.86 -0.48,7.64 -0.301,2.8 -0.907,5.83 -1.407,9.14 -1.046,6.59 -2.046,14.23 -4.57,22.54 -3.855,16.87 -11.754,36.81 -24.187,57.94 -12.536,21.04 -30.614,43.03 -55.231,61.69 -24.543,18.5 -55.508,34.25 -91.277,40.66 -35.524,6.18 -75.641,5.16 -113.879,-9.26 -9.727,-3.09 -18.875,-7.88 -28.281,-12.36 -8.911,-5.36 -18.301,-10.3 -26.598,-17.02 -8.82,-6.02 -16.531,-13.56 -24.617,-20.83 -7.301,-8.04 -14.977,-15.92 -21.278,-25.05 -12.933,-17.87 -24.238,-37.73 -31.097,-59.59 -7.114,-21.72 -10.973,-44.79 -11.34,-68.28 0.246,-23.51 3.98,-46.61 10.98,-68.37 6.746,-21.9 17.954,-41.82 30.793,-59.76 6.258,-9.17 13.895,-17.09 21.161,-25.18 8.042,-7.3 15.722,-14.89 24.511,-20.96 8.266,-6.76 17.629,-11.74 26.512,-17.15 9.387,-4.53 18.516,-9.37 28.227,-12.51 38.167,-14.61 78.285,-15.84 113.839,-9.83 35.801,6.23 66.856,21.83 91.485,40.2 24.711,18.55 42.894,40.44 55.539,61.42 12.539,21.07 20.531,40.96 24.469,57.81 2.57,8.3 3.601,15.94 4.691,22.52 0.512,3.3 1.133,6.33 1.449,9.12 0.184,2.79 0.36,5.34 0.516,7.64 0.332,4.38 0.594,7.81 0.781,10.37 0.207,2.34 0.348,3.54 0.43,3.54 0.086,0 0.097,-1.2 0.054,-3.55 -0.078,-2.57 -0.183,-6.02 -0.324,-10.42 -0.086,-2.32 -0.183,-4.89 -0.293,-7.7 -0.242,-2.82 -0.789,-5.87 -1.234,-9.2 -0.945,-6.65 -1.852,-14.36 -4.297,-22.77 -3.699,-17.06 -11.512,-37.26 -23.992,-58.71 -12.574,-21.36 -30.824,-43.71 -55.781,-62.72 -24.875,-18.82 -56.368,-34.86 -92.786,-41.38 -36.168,-6.29 -77.046,-5.19 -116.035,9.6 -9.918,3.18 -19.242,8.07 -28.828,12.69 -9.086,5.48 -18.644,10.56 -27.101,17.43 -8.981,6.19 -16.844,13.91 -25.059,21.36 -7.441,8.23 -15.242,16.31 -21.648,25.66 -13.137,18.3 -24.598,38.65 -31.516,61.02 -7.176,22.22 -10.992,45.84 -11.246,69.84 0.375,23.99 4.324,47.57 11.609,69.76 7.035,22.32 18.594,42.6 31.828,60.83 6.453,9.32 14.297,17.35 21.774,25.55 8.254,7.4 16.148,15.08 25.164,21.22 8.484,6.82 18.078,11.86 27.187,17.29 9.606,4.56 18.953,9.41 28.887,12.54 39.059,14.6 79.938,15.49 116.07,9.02 36.379,-6.7 67.793,-22.9 92.575,-41.85 24.863,-19.13 42.996,-41.57 55.464,-62.99 12.375,-21.52 20.086,-41.76 23.704,-58.84 2.406,-8.41 3.273,-16.14 4.183,-22.79 0.426,-3.33 0.957,-6.39 1.188,-9.21 0.097,-2.82 0.179,-5.38 0.257,-7.7 0.114,-4.4 0.204,-7.85 0.266,-10.43 0.031,-2.35 0.016,-3.55 -0.07,-3.55" class="colordadbd8 svgShape"/><path fill="#dbd8d8" d="m 342.422,2340.76 -127.231,88.77 30.981,44.39 85.308,-59.52 110.364,140.23 42.539,-33.48 -141.961,-180.39" class="colordadbd8 svgShape"/><path fill="#f3eded" fill-rule="evenodd" d="m 3851.97,3749.79 c -117.03,-4.18 -200.26,-113.5 -173.12,-227.43 20.07,-84.27 98.55,-143.97 185.12,-140.81 116.96,4.27 200.07,113.49 173.01,227.34 -20.03,84.26 -98.46,143.99 -185.01,140.9 z m 51.03,234.62 c 37.61,-4.72 73.96,-14.45 108.21,-28.58 l 79.54,66.66 136.62,-103.99 -43.04,-94.43 c 22.75,-29.24 41.82,-61.68 56.39,-96.69 l 103.34,-9.11 23.07,-170.14 -97.16,-36.32 c -4.7,-37.63 -14.45,-73.98 -28.59,-108.22 l 66.66,-79.56 -103.98,-136.61 -94.43,43.04 c -29.25,-22.74 -61.68,-41.8 -96.71,-56.37 l -9.09,-103.34 -170.16,-23.1 -36.31,97.18 c -37.64,4.7 -73.96,14.45 -108.22,28.59 l -79.56,-66.67 -136.62,103.99 43.05,94.44 c -22.74,29.24 -41.78,61.68 -56.38,96.69 l -103.32,9.11 -23.09,170.15 97.17,36.3 c 4.7,37.63 14.44,73.99 28.59,108.23 l -66.67,79.55 103.98,136.62 94.43,-43.05 c 29.25,22.74 61.68,41.81 96.71,56.39 l 9.1,103.32 170.13,23.09 36.34,-97.17" class="colorf3f2f1 svgShape"/><path fill="#e8e5e5" fill-rule="evenodd" d="m 2320.49,3288.14 c -75.97,-2.71 -129.99,-73.68 -112.38,-147.63 13.04,-54.7 63.98,-93.46 120.17,-91.41 75.92,2.78 129.87,73.67 112.31,147.58 -13,54.69 -63.92,93.47 -120.1,91.46 z m 33.13,152.3 c 24.41,-3.06 48.01,-9.38 70.24,-18.55 l 51.63,43.27 88.69,-67.5 -27.94,-61.3 c 14.76,-18.98 27.14,-40.04 36.6,-62.77 l 67.08,-5.91 14.98,-110.44 -63.07,-23.58 c -3.05,-24.43 -9.38,-48.02 -18.57,-70.25 l 43.28,-51.64 -67.49,-88.68 -61.3,27.94 c -18.99,-14.77 -40.05,-27.13 -62.79,-36.6 l -5.89,-67.08 -110.46,-14.99 -23.57,63.09 c -24.43,3.05 -48.01,9.37 -70.25,18.55 l -51.64,-43.28 -88.69,67.51 27.96,61.3 c -14.77,18.98 -27.13,40.04 -36.61,62.77 l -67.07,5.91 -14.99,110.44 63.08,23.57 c 3.05,24.43 9.37,48.03 18.56,70.26 l -43.28,51.64 67.49,88.68 61.31,-27.94 c 18.98,14.76 40.04,27.13 62.77,36.6 l 5.91,67.07 110.44,14.99 23.59,-63.08" class="colore7e8e5 svgShape"/><path fill="#e8e5e5" d="m 3280.33,2633.18 c 0,0 16.4,-6 39.92,-26.4 23,-20.06 52.83,-57.93 61.91,-113.79 4.27,-27.55 3.53,-59.19 -6.85,-90.66 -10.44,-31.18 -28.75,-62.93 -57.09,-87.37 -13.76,-12.56 -29.98,-23.08 -47.7,-31.22 -17.61,-8.41 -36.96,-14.2 -57.11,-16.69 -40.23,-5.9 -83.63,2.05 -121.58,22.45 -37.62,21.04 -67.66,53.37 -84.31,90.48 -8.73,18.34 -14.24,37.77 -16.62,57.14 -2.66,19.31 -2.5,38.65 0.69,57.01 5.38,37.04 22.32,69.55 43.01,95.11 20.97,25.67 47.25,43.3 72.79,54.49 51.99,22.36 99.95,17.55 129.21,8.93 29.85,-8.87 43.73,-19.48 43.73,-19.48 -0.58,-1.25 -15.3,7.91 -44.81,15.3 -28.97,7.19 -75.44,10.48 -124.95,-11.92 -24.33,-11.2 -49.18,-28.42 -68.86,-53.14 -19.41,-24.63 -35.23,-55.71 -40.02,-90.85 -2.91,-17.43 -2.93,-35.75 -0.3,-54.02 2.35,-18.32 7.65,-36.69 15.98,-53.99 15.88,-35.04 44.27,-65.43 79.79,-85.34 35.89,-19.24 76.75,-26.85 114.82,-21.41 19.06,2.28 37.4,7.67 54.11,15.54 16.81,7.61 32.25,17.47 45.38,29.28 27.06,22.93 44.77,52.97 55.11,82.57 10.27,29.87 11.44,60.09 7.82,86.62 -7.71,53.8 -35.45,91.22 -57.09,111.79 -22.08,20.92 -37.73,28.41 -36.98,29.57" class="colore7e8e5 svgShape"/><path fill="#e8e5e5" d="M3486.56 2788.89c-.15-.05.35 2.18 1.49 6.62 1.28 4.89 3 11.45 5.24 19.93 5 18.22 12.19 44.48 21.51 78.55l.85-2.04c-40.56 21.95-93.89 50.81-158.41 85.71l3.46.6c-21.75-24.78-45.92-52.31-71.78-81.77l-1.29-1.48-1.93.47c-35.56 8.64-74.67 13.39-115.86 12.26l-2.2-.06-1.08 1.94c-16.55 29.62-34.45 61.7-53.09 95.05l4.57-1.87c-54.42-16-112.15-32.98-172.78-50.81l3.13 4.46c2.12-33.64 4.45-70.68 6.84-108.66l.18-2.76-2.38-1.44c-30.94-18.69-62.56-43.32-90.51-72.84l-1.99-2.11-2.8.8c-32.44 9.25-68.22 19.43-104.65 29.81l5.69 2.38c-27.15-49.64-56.42-103.17-86.42-158.03l-1.11 6.35c25.4-22.43 53.29-47.07 81.55-72.03l2.38-2.11-.76-3.11c-8.71-35.3-13.55-75.09-12.48-115.33l.08-3.24-2.85-1.58c-29.81-16.56-62.33-34.62-95.17-52.87l2.57 6.27c15.98-54.74 33.12-113.41 50.48-172.89l-5.63 3.96c34.33 2.1 71.37 4.36 108.68 6.65l3.35.2 1.73-2.87c19.01-31.58 43.61-62.95 72.47-90.37l.04-.03.02-.03c.68-2.47-1.49 5.52 1.52-5.56l-.03-.1-.06-.21-.11-.41-.24-.82-.47-1.65-.94-3.29-1.89-6.59-3.77-13.15-7.52-26.24c-5-17.45-9.98-34.84-14.94-52.15l-2.66 6.38c53.36-29.29 106.01-58.19 157.91-86.66l-6.75-1.18c24.28 27.43 48.33 54.58 72.14 81.46l2.19 2.47 3.2-.79c38.09-9.44 76.99-13.59 115.29-12.67l3.26.08 1.57-2.84c17.84-32.21 35.4-63.92 52.74-95.23l-6.09 2.51c59.04 17.15 116.71 33.89 172.94 50.22l-3.66-5.2c-2.21 36.87-4.37 73.08-6.5 108.67l-.17 3.02 2.57 1.54c34.01 20.44 64.47 45.06 90.7 72.51l2.01 2.11 2.78-.8c35.86-10.34 70.62-20.35 104.56-30.13l-5.31-2.22c30.6 55.48 59.47 107.86 86.96 157.73l.91-5.22c-28.6 25.43-55.44 49.3-81.32 72.32l-1.8 1.6.57 2.34c10.04 40.33 13.71 79.02 12.96 115.69l-.05 2.22 1.93 1.05c34.66 19.08 65.87 36.26 95.37 52.49l-1.56-3.78c-19.23 67.07-35.62 124.22-49.64 173.14l2.54-1.78c-43.42-2.37-79.04-4.32-108.71-5.94l-1.09-.05-.55.92c-20.28 33.97-39.33 56.56-52.21 71.12-6.39 6.89-11.27 12.16-14.86 16.02-3.46 3.6-5.01 5.33-4.86 5.37.15.03 2.05-1.58 5.53-4.71 3.51-3.31 8.83-8.34 15.54-15.45 13.37-14.21 32.99-36.56 53.92-70.51l-1.63.86c29.64 2 65.22 4.4 108.6 7.33l1.98.13.57-1.92c14.46-48.8 31.34-105.8 51.16-172.7l.75-2.5-2.31-1.28c-29.37-16.43-60.48-33.82-95.01-53.13l1.88 3.28c.99-37.27-2.5-76.66-12.51-117.78l-1.23 3.93c25.99-22.89 52.95-46.63 81.67-71.92l2.54-2.24-1.63-2.98c-27.29-49.98-55.95-102.47-86.32-158.09l-1.76-3.22-3.56 1.01c-33.97 9.66-68.77 19.56-104.65 29.78l4.79 1.3c-26.73-28.15-57.8-53.41-92.52-74.41l2.39 4.55c2.22-35.57 4.48-71.78 6.76-108.65l.26-4.07-3.92-1.14c-56.2-16.45-113.84-33.31-172.84-50.58l-4.05-1.19-2.06 3.7c-17.39 31.28-35 62.97-52.89 95.15l4.82-2.77c-39.23-.99-79.11 3.21-118.16 12.84l5.38 1.68c-23.79-26.9-47.82-54.08-72.08-81.53l-2.9-3.29-3.85 2.12c-51.91 28.45-104.58 57.32-157.96 86.57l-3.87 2.13 1.21 4.26c4.96 17.31 9.94 34.7 14.94 52.16l7.51 26.24 3.77 13.14 1.89 6.59.94 3.29.47 1.64.24.83.11.41.06.21.03.11c3.02-11.08.83-3.06 1.49-5.53l-.02.02-.04.04c-29.6 28.12-54.83 60.31-74.3 92.68l5.07-2.66c-37.3-2.27-74.35-4.51-108.67-6.6l-4.4-.27-1.24 4.22c-17.31 59.5-34.39 118.19-50.32 172.94l-1.21 4.18 3.79 2.1c32.88 18.2 65.41 36.22 95.25 52.74l-2.76-4.81c-1.03 41.22 3.99 81.97 12.98 118.11l1.62-5.2c-28.21 25.01-56.05 49.71-81.4 72.19l-3.09 2.74 1.98 3.61c30.15 54.79 59.55 108.24 86.82 157.81l1.9 3.47 3.79-1.09c36.41-10.49 72.15-20.79 104.56-30.12l-4.78-1.3c28.68 30.09 61.06 55.14 92.71 74.1l-2.2-4.2c-2.24 37.98-4.43 75.04-6.41 108.68l-.21 3.49 3.34.97c60.71 17.54 118.53 34.25 173.01 50l3.05.88 1.51-2.75c18.45-33.47 36.18-65.64 52.55-95.36l-3.27 1.88c41.88.89 81.57-4.19 117.6-13.23l-3.21-1c26.1 29.25 50.49 56.59 72.44 81.19l1.51 1.69 1.95-1.09c64.1-35.65 117.1-65.11 157.4-87.53l1.25-.7-.4-1.34c-10.02-33.56-17.74-59.41-23.1-77.35-2.63-8.49-4.65-15.05-6.17-19.95-1.42-4.49-2.22-6.79-2.37-6.83M3909.97 2608.06l-156.92 624.03 638.47 10.55z" class="colore7e8e5 svgShape"/><path fill="#e8e5e5" d="m 5367.77,2234.49 -219.31,-289.02 -1168.78,886.92 219.31,289.02 1168.78,-886.92" class="colore7e8e5 svgShape"/><path fill="#f0983d" d="m 5052.17,1012.84 81.12,-183.879 c 0,0 -159.68,-144.191 -148,-179.641 l 362.19,144.45 -114.61,291.7 -180.7,-72.63" class="colorf03d5f svgShape"/><path fill="#7e471c" d="m 4985.29,649.32 c -0.41,1.239 -0.61,2.621 -0.61,4.129 -0.04,41.281 148.61,175.512 148.61,175.512 v 0 0 l -81.12,183.879 180.7,72.63 114.61,-291.7 -362.19,-144.45" class="color7e1c2c svgShape"/><path fill="#2f2217" d="m 5347.48,793.77 -12.7,28.949 -342.52,-149.321 c 0,0 -13.32,-13.449 -6.97,-24.078 l 362.19,144.45" class="color17282f svgShape"/><path fill="#f0983d" d="m 5689.99,752.359 101.52,-173.437 c 0,0 -142.21,-161.453 -126.56,-195.332 l 343.38,184.769 -147.1,276.75 -171.24,-92.75" class="colorf03d5f svgShape"/><path fill="#7e471c" d="m 5664.95,383.59 c -0.81,1.75 -1.2,3.84 -1.2,6.242 -0.11,43.918 127.76,189.09 127.76,189.09 v 0 0 l -61.48,105.039 178.6,71.969 99.7,-187.571 -343.38,-184.769" class="color7e1c2c svgShape"/><path fill="#2f2217" d="m 6008.33,568.359 -15.92,27.313 -323.27,-187.371 c 0,0 -11.71,-14.871 -4.19,-24.719 l 343.38,184.777" class="color17282f svgShape"/><path fill="#f5c16c" d="m 5246.92,3185.33 -222.57,-17.34 -7.39,124.61 c 0,0 -89.77,1.31 -103.21,89 -13.44,87.69 -26.57,291.54 -26.57,291.54 95.53,58 214.99,59.75 312.18,4.57 l 14.43,-8.19 33.13,-484.19" class="colorf8a58d svgShape"/><path fill="#df8931" d="m 5016.64,3293.85 c 0,0 56.15,3.28 109.94,48.65 0,0 -19.46,-68.97 -108.22,-73.38 l -1.72,24.73" class="colorf68260 svgShape"/><path fill="#f5c16c" d="m 5215.76,3577.01 c 1.41,0.86 57.85,26.34 64.37,-33.99 6.53,-60.32 -55.39,-54.43 -55.68,-52.71 -0.28,1.72 -8.69,86.7 -8.69,86.7" class="colorf8a58d svgShape"/><path fill="#df8931" d="m 5240.41,3515.16 c 0.24,0.22 1.13,-0.62 3,-1.25 1.81,-0.6 4.85,-0.83 7.87,0.69 6.12,3.03 10.39,13.73 9.51,24.63 -0.44,5.51 -2.16,10.61 -4.57,14.73 -2.33,4.22 -5.51,6.99 -8.78,7.21 -3.27,0.39 -5.33,-1.77 -5.89,-3.54 -0.62,-1.78 -0.12,-2.95 -0.42,-3.08 -0.16,-0.17 -1.41,0.87 -1.19,3.41 0.12,1.23 0.67,2.72 1.96,4.04 1.33,1.33 3.39,2.16 5.65,2.16 4.68,0.18 9.33,-3.64 11.99,-8.16 2.91,-4.52 4.97,-10.24 5.46,-16.43 0.94,-12.19 -4.06,-24.24 -12.51,-27.7 -4.12,-1.57 -7.8,-0.67 -9.79,0.55 -2.03,1.29 -2.49,2.6 -2.29,2.74" class="colorf68260 svgShape"/><path fill="#2f2217" d="M4925.09 3535.1c.69-6.65 6.9-11.55 13.87-10.95 6.95.6 12.03 6.47 11.34 13.13-.7 6.66-6.91 11.56-13.87 10.96-6.96-.59-12.05-6.47-11.34-13.14M4921.18 3551.91c1.78-1.43 10.29 6.94 23.8 8.81 13.47 2.05 24.34-3.5 25.57-1.64.62.83-1.37 3.56-6.13 6.1-4.69 2.53-12.36 4.55-20.76 3.33-8.41-1.23-15.04-5.31-18.66-9.06-3.7-3.77-4.69-6.93-3.82-7.54M5056.37 3550.29c.7-6.65 6.91-11.55 13.87-10.95 6.96.6 12.04 6.47 11.34 13.13-.69 6.66-6.9 11.57-13.86 10.96-6.96-.6-12.05-6.48-11.35-13.14M5054.22 3568.04c1.78-1.41 10.32 6.96 23.81 8.82 13.46 2.05 24.34-3.5 25.58-1.64.61.83-1.37 3.56-6.14 6.09-4.69 2.53-12.35 4.55-20.76 3.34-8.4-1.22-15.04-5.32-18.67-9.06-3.69-3.77-4.68-6.92-3.82-7.55M5019.3 3461.05c-.03.77-8.64 1.04-22.48.86-3.49-.12-6.85.1-7.76 2.37-1.16 2.38-.24 6.3.86 10.54 2.07 8.8 4.23 18.02 6.5 27.69 8.91 39.36 14.84 71.53 13.25 71.87-1.6.35-10.1-31.28-19-70.64-2.11-9.7-4.14-18.94-6.05-27.78-.75-4.1-2.38-8.86.11-13.78 1.29-2.44 4.09-3.96 6.38-4.24 2.31-.37 4.25-.13 5.97.01 13.79 1.19 22.28 2.32 22.22 3.1M5060.35 3457.29c-2.22-.18-.19-14.84-11.26-27-11.06-12.19-26.9-12.74-26.73-14.81-.08-.95 3.88-2.36 10.49-1.6 6.5.68 15.65 4.08 22.43 11.53 6.76 7.45 8.85 16.42 8.51 22.5-.31 6.21-2.45 9.61-3.44 9.38M5043.3 3620.46c1.84-3.49 15.08.15 31.18.47 16.1.63 29.52-2.2 31.16 1.38.73 1.71-1.99 4.85-7.65 7.67-5.62 2.83-14.26 5.06-23.92 4.78-9.66-.3-18.14-3.03-23.58-6.19-5.49-3.16-8.01-6.46-7.19-8.11M4920.64 3591.67c2.81-2.73 11.66 1.76 22.82 3.48 11.11 2.11 20.94.84 22.67 4.36.74 1.69-1.18 4.55-5.73 6.87-4.48 2.32-11.63 3.72-19.29 2.41-7.65-1.32-13.91-5.04-17.36-8.73-3.51-3.7-4.37-7.04-3.11-8.39" class="color17282f svgShape"/><path fill="#2f2217" d="m 4836.58,3722.58 c -2.47,10.75 -0.06,23.01 7.9,30.65 7.96,7.65 21.76,9.17 30.12,1.96 -6.19,14.09 3.43,32.7 18.49,35.8 14.2,2.92 27.94,-6.18 42.32,-8.03 14.03,-1.81 28.08,3.44 40.35,10.5 12.26,7.06 23.4,16 35.88,22.65 26.04,13.89 57.61,17.05 85.89,8.59 28.27,-8.47 52.92,-28.43 67.06,-54.34 18.36,8.7 41.56,2.02 55.7,-12.59 14.13,-14.61 20.18,-35.55 20.63,-55.87 0.31,-13.73 -1.76,-27.33 -4.51,-40.83 0.17,-1.13 0.43,-2.22 0.58,-3.36 5.88,-48.43 8.4,-105.92 -12.17,-109.14 -35.84,-5.59 -36.79,63.28 -36.79,63.28 -46.48,10.83 -39.35,79.19 -51.78,87.65 -12.42,8.48 -38.76,28.52 -124.42,-31.63 -33.26,-23.36 -80.98,-29.48 -107.83,-27.24 l -2.35,0.14 -0.56,0.04 -0.8,0.2 c -8.59,0.99 -17.04,3.07 -25.08,6.7 -9.11,4.12 -17.71,10.22 -22.56,18.95 -4.84,8.74 -5.13,20.45 1.18,28.21 -8.02,7.59 -14.78,16.95 -17.25,27.71" class="color17282f svgShape"/><path fill="#e8e5e5" d="m 5016.64,3216.25 9.93,-348.73 216.97,467.1 -5.43,43.25 -221.47,-161.62" class="colore7e8e5 svgShape"/><path fill="#2f2217" d="m 5160.59,2173.75 c -7.96,-2.6 -459.71,-459.48 -449.56,-541.55 10.15,-82.06 331.74,-689.841 331.74,-689.841 l 229.44,113.131 -215.23,532.82 2.81,33.06 263.05,215.54 -14.05,346.65 -148.2,-9.81" class="color17282f svgShape"/><path fill="#2f2217" d="m 5257.99,2083.71 c 5.26,-7.96 83.49,-725.73 104.46,-762.88 20.97,-37.15 335.2,-649.908 335.2,-649.908 l 233.3,94 -284.81,673.468 32.45,637.4 -17.57,179.99 -352.23,-72.22 -50.8,-99.85" class="color17282f svgShape"/><path fill="#5f4633" d="M5358.36 1333.47c-.18-.03-.7 2.45-1.53 7.18-.86 5.21-1.98 12.1-3.39 20.72-2.82 18.57-6.74 44.52-11.57 76.36-9.35 65.01-22.14 153.93-36.27 252.16-13.57 98.35-25.85 187.36-34.83 252.42-4.16 31.93-7.55 57.95-9.98 76.57-1.03 8.67-1.85 15.6-2.46 20.86-.51 4.77-.7 7.29-.52 7.31.17.03.68-2.44 1.51-7.18.86-5.2 1.99-12.1 3.4-20.72 2.82-18.56 6.74-44.51 11.57-76.35 9.35-65.01 22.14-153.93 36.27-252.21 13.57-98.32 25.85-187.32 34.83-252.38 4.16-31.93 7.56-57.96 9.98-76.57 1.02-8.68 1.84-15.61 2.47-20.86.51-4.77.68-7.29.52-7.31M5640.21 1458.98c1.34-.38-4.73-25.84-13.55-56.88-8.83-31.04-17.06-55.89-18.4-55.51-1.33.37 4.75 25.84 13.56 56.89 8.83 31.02 17.06 55.88 18.39 55.5M5675.51 1296.42c-.46-.34-5.98 5.98-12.74 17.7-6.77 11.68-14.3 29.04-18.65 49.29-4.29 20.28-4.49 39.2-3.08 52.62 1.39 13.46 3.85 21.48 4.41 21.36 1.68-.12-5.15-33.22 3.58-72.94 8.22-39.79 27.95-67.24 26.48-68.03M4981.74 1665.63c.46 1.17 19.32-6.67 37.66-23.51 18.45-16.71 27.99-34.79 26.87-35.35-1.26-.83-12.39 15.49-30.25 31.65-17.72 16.29-35.01 25.87-34.28 27.21M5017.15 1686.83c.9.94 12.42-9.23 22.24-25.24 9.91-15.95 13.86-30.8 12.61-31.19-1.37-.5-7.29 13.14-16.88 28.56-9.49 15.47-19.04 26.87-17.97 27.87" class="color33535f svgShape"/><path fill="#f0983d" d="m 5048.34,2733.94 57.75,-286.51 47,-399.82 c 0,0 193.76,27.05 276.34,53.19 95.78,30.32 304.19,56.14 304.19,56.14 l -35.13,-34.76 c 74.56,20.88 122.04,92.04 122.04,92.04 -128.52,119.2 -238.15,364.41 -238.15,364.41 l -97.73,485.23 c 0,0 -14.84,68.45 -23.79,98.89 -8.96,30.44 -157.36,128.63 -177.92,141.04 l -12.92,6.11 -4.12,38.89 -15.29,9.14 -160.6,-145.89 c -31.21,-28.41 -51.13,-67.11 -55.89,-109.04 -5.02,-44.22 -9.52,-107.63 -7,-182.53 1.91,-56.85 21.22,-186.53 21.22,-186.53" class="colorf03d5f svgShape"/><path fill="#f0983d" d="m 5158.59,3230.27 c 0,0 -84.85,-45.48 -99.56,-84.09 -14.71,-38.6 29.03,-461.84 29.03,-461.84 l -304.67,-5.72 -0.96,-181.55 c 0,0 483.95,-38.24 502.79,-12.07 25.46,35.37 55.05,366.08 55.05,366.08 l 10.99,237.96 c 0,0 -28.06,181.46 -192.67,141.23" class="colorf03d5f svgShape"/><path fill="#ba6b2c" d="m 5191.59,2434.23 c -28.86,0 -56.43,3.8 -85.5,13.2 v 0 l -5.71,29.13 c 0,0 55.4,-3.98 98.69,-3.98 13.04,0 24.97,0.36 33.97,1.3 8.98,0.94 18.46,1.59 26.98,4.3 14,1.47 22.94,3.68 25.2,6.82 7.24,10.05 14.81,43.96 21.94,87.36 12.12,59.16 19.41,132.94 23.1,178.64 1.54,14.22 2.93,27.58 4.16,39.63 9.35,-27.84 22.75,-77.02 18.61,-104.26 -4.33,-28.34 -11.42,-56.33 -13.06,-84.95 -1.88,-32.95 3.3,-67.41 -9.12,-97.99 -16.22,-39.92 -59.9,-63.41 -102.8,-67.4 -12.51,-1.16 -24.59,-1.8 -36.46,-1.8" class="colorba2c42 svgShape"/><path fill="#ba6b2c" d="m 5260.02,2478.18 c 4.65,1.48 9.01,3.58 12.85,6.67 9.34,7.52 14.65,18.88 18.83,30.12 5.85,15.71 10.98,35.55 15.46,57.39 -7.13,-43.4 -14.7,-77.31 -21.94,-87.36 -2.26,-3.14 -11.2,-5.35 -25.2,-6.82 m 70.24,272.82 c 2.1,26 3.04,42.92 3.04,42.92 0.36,-1.06 0.74,-2.16 1.12,-3.29 -1.23,-12.05 -2.62,-25.41 -4.16,-39.63" class="colorba2c42 svgShape"/><path fill="#2f2217" d="m 5350.74,3063.33 c 0.09,0 0.09,-1.46 0.01,-4.32 -0.12,-3.07 -0.27,-7.27 -0.48,-12.64 -0.56,-11.36 -1.34,-27.69 -2.34,-48.61 -1.12,-21.18 -2.46,-46.98 -4.04,-76.89 -1.82,-29.96 -2.82,-64.15 -6.49,-101.77 -3.28,-37.64 -7.23,-78.84 -11.94,-123.02 -4.91,-44.17 -10.15,-91.36 -18.55,-140.73 -2.39,-12.33 -4.29,-24.77 -8.37,-37.32 -4.19,-12.37 -11.47,-24.24 -21.97,-32.91 -10.35,-8.47 -24.07,-14.5 -37.91,-13.54 -13.44,-0.3 -26.9,0.05 -40.52,0.21 -54.38,1.34 -110.59,4.13 -168.15,7.25 -86.49,4.78 -169.84,10.17 -247.73,15.64 l -2.24,0.16 0.02,2.25 c 0.38,64.47 0.75,125.22 1.08,181.25 l 0.02,2.1 2.08,0.04 c 121.66,2.62 222.95,4.79 294.08,6.32 35.27,0.61 63.05,1.1 82.28,1.43 9.3,0.09 16.52,0.16 21.66,0.21 4.9,0.01 7.44,-0.16 7.44,-0.16 0,0 -2.53,-0.29 -7.42,-0.52 -5.14,-0.2 -12.36,-0.48 -21.65,-0.85 -19.22,-0.61 -46.99,-1.49 -82.24,-2.61 -71.13,-1.97 -172.4,-4.76 -294.04,-8.12 l 2.1,2.14 c -0.19,-56.03 -0.39,-116.78 -0.61,-181.26 l -2.22,2.4 c 77.87,-5.32 161.22,-10.64 247.66,-15.41 57.53,-3.12 113.72,-5.94 168,-7.35 13.55,-0.18 27.02,-0.54 40.25,-0.26 13.03,-0.96 25.29,4.57 35.01,12.38 9.71,7.99 16.56,18.99 20.57,30.75 3.87,11.79 5.89,24.45 8.26,36.6 8.5,49.09 13.89,96.27 18.97,140.36 4.9,44.13 9.04,85.29 12.55,122.89 3.89,37.57 5.13,71.73 7.23,101.66 1.9,29.87 3.53,55.64 4.87,76.81 1.42,20.88 2.52,37.19 3.29,48.54 0.42,5.36 0.74,9.55 0.98,12.61 0.25,2.84 0.41,4.3 0.5,4.29" class="color17282f svgShape"/><path fill="#2f2217" d="M4842.23 2499.74c-1.38.01-2.29 39.43-2.04 88.04.26 48.63 1.59 88.03 2.97 88.02 1.39 0 2.31-39.42 2.05-88.05-.26-48.6-1.59-88.01-2.98-88.01M4809.93 2648.22c-.59.33 2.46 3.72 8.24 1.8 2.67-.84 5.91-3.82 6.18-8.06.35-4.01-1.64-8.71-6.19-10.88-4.6-1.99-9.4-.46-12.25 2.26-3.06 2.82-3.6 6.91-2.97 9.59 1.36 5.75 5.37 6.97 5.51 6.39.47-.57-1.91-2.69-2-6.82-.03-2.01.66-4.27 2.53-5.71 1.82-1.51 4.85-2.18 7.11-1.14 2.25 1 3.69 3.76 3.64 6.05.05 2.31-1.34 4.08-3.04 5.1-3.51 2.09-6.45.77-6.76 1.42" class="color17282f svgShape"/><path fill="#f0983d" d="m 5485.99,3022.28 c 0,0 158.52,-207.25 177.83,-263.73 19.31,-56.49 4.39,-137.58 -27.89,-176.35 -32.29,-38.78 -58.32,-23.02 -58.32,-23.02 l -91.62,463.1" class="colorf03d5f svgShape"/><path fill="#2f2217" d="M5571.94 2575.82c.23-1.37-17.56-5.56-39.73-9.36-22.17-3.81-40.34-5.78-40.57-4.41-.24 1.36 17.55 5.55 39.73 9.36 22.16 3.8 40.34 5.78 40.57 4.41M5602.41 2423.01c.33.09 1.85-3.81 4.31-10.94 2.4-7.14 6.04-17.43 10.74-30.03 9.35-25.24 23.76-59.55 42.58-96.05 18.87-36.47 38.41-68.16 53.25-90.63 7.4-11.25 13.51-20.29 17.78-26.5 4.24-6.23 6.47-9.79 6.18-9.99-.27-.21-3.01 2.95-7.75 8.84-4.76 5.87-11.34 14.62-19.14 25.65-15.65 22.05-35.79 53.63-54.79 90.33-18.92 36.72-32.92 71.5-41.45 97.16-4.3 12.82-7.44 23.31-9.28 30.65-1.88 7.32-2.76 11.41-2.43 11.51" class="color17282f svgShape"/><path fill="#ba6b2c" d="m 5732.86,2176.29 c -0.79,0 -1.58,0.09 -2.37,0.27 -4.23,1 -7.31,4.5 -10,7.94 -2.23,3.34 -4.64,6.97 -7.2,10.86 -14.84,22.47 -34.38,54.16 -53.25,90.63 -17.72,34.36 -31.53,66.79 -40.89,91.53 -1.48,4.68 -2.9,9.37 -4.26,14.09 l -1.71,6.84 c 25.12,-44.77 50.94,-90.41 89.21,-124.63 13.51,-12.08 28.62,-22.8 38.93,-37.71 10.3,-14.91 14.75,-35.76 4.97,-51.01 -3.02,-4.69 -8.06,-8.81 -13.43,-8.81" class="colorba2c42 svgShape"/><path fill="#1d150f" d="m 5720.49,2184.5 c -0.12,0.15 -0.24,0.3 -0.36,0.45 -44.7,57.54 -79.05,123.09 -100.98,192.57 9.36,-24.74 23.17,-57.17 40.89,-91.53 18.87,-36.47 38.41,-68.16 53.25,-90.63 2.56,-3.89 4.97,-7.52 7.2,-10.86" class="color0f191d svgShape"/><path fill="#ba6b2c" d="m 5592.25,2559.96 -14.52,20.87 -78.42,410.2 15.5,-57.49 c 20.14,-82.52 43.15,-150.86 77.2,-226.44 10.99,-24.35 23.1,-48.83 26.33,-75.36 3.21,-26.53 -4.38,-56.2 -26.09,-71.78" class="colorba2c42 svgShape"/><path fill="#2f2217" d="M5199.85 3248.69c-.89 1.15 13.35 13.26 29.54 29.51 16.26 16.21 28.36 30.43 29.51 29.55 1.07-.78-9.43-16.61-25.96-33.1-16.48-16.53-32.32-27.03-33.09-25.96M5183.83 3213.57c.25-.84-9.15-3.67-23.18-10.61-14.02-6.88-32.38-18.62-49.18-35.54-16.72-16.99-28.25-35.5-34.96-49.6-6.78-14.11-9.48-23.54-10.33-23.3-.33.09.07 2.51 1.09 6.86.95 4.35 2.96 10.51 6 17.89 6.01 14.78 17.42 34.19 34.64 51.68 17.27 17.41 36.55 29.04 51.25 35.23 7.34 3.13 13.47 5.22 17.82 6.21 4.34 1.08 6.75 1.51 6.85 1.18M5609.54 2518.73c-.15-.08-1 1.29-2.49 3.98-1.7 3.19-3.8 7.11-6.35 11.89-5.67 11.09-13.36 26.13-22.81 44.63l-.09.18-.05.22c-9.91 45.43-23.93 111.67-39.18 185.35-14.08 69.43-26.81 132.26-36.21 178.61-4.29 22.37-7.81 40.73-10.4 54.24-1.04 5.97-1.89 10.86-2.59 14.8-.53 3.4-.73 5.2-.55 5.23.16.04.69-1.69 1.55-5.02.93-3.89 2.09-8.72 3.51-14.61 2.97-13.44 7.03-31.69 11.96-53.92 9.77-46.27 23.01-108.99 37.64-178.32 15.25-73.67 28.66-140.04 37.58-185.67l-.13.41c8.88-18.78 16.11-34.05 21.43-45.31 2.23-4.94 4.06-8.99 5.55-12.29 1.21-2.82 1.78-4.33 1.63-4.4M5082.8 2684.5c-.34-.03-1.15 5.32-2.31 15.02-1.16 10.6-2.66 24.44-4.48 41.13-3.55 34.75-8.11 82.78-12.85 135.87-4.73 53.1-8.75 101.19-11.39 136.02-1.18 16.74-2.14 30.62-2.89 41.26-.56 9.75-.72 15.15-.37 15.18.35.02 1.16-5.33 2.32-15.03 1.15-10.6 2.65-24.45 4.47-41.13 3.56-34.75 8.13-82.78 12.86-135.87 4.73-53.07 8.74-101.15 11.39-135.97 1.17-16.75 2.14-30.64 2.88-41.28.57-9.75.72-15.16.37-15.2" class="color17282f svgShape"/><path fill="#f5c16c" d="m 4787.2,2657.38 c 0,0 -65.71,49.85 -81.74,52.86 -12.28,2.3 -85.62,1.08 -119.35,0.38 -12.97,-0.27 -24.35,-10.46 -24.2,-23.43 l 0.23,-2.38 c 2.64,-13.69 16.03,-16.66 16.03,-16.66 0,0 -17.48,-5.02 -17.76,-24.06 -0.28,-19.05 22.77,-23.05 22.77,-23.05 0,0 -1.38,-1.02 -3.29,-2.93 -12.6,-12.58 -6.2,-34.18 11.15,-38.13 l 10.39,-2.36 c 0,0 -14.05,-5.85 -13.85,-18.92 0.38,-25.07 56.74,-29.87 56.74,-29.87 0,0 139.31,-22.05 142.32,-21.05 3.01,1.01 0.56,149.6 0.56,149.6" class="colorf8a58d svgShape"/><path fill="#f5c16c" d="m 4599.07,2740.26 c 0.62,-8.26 2.56,-25.84 16.61,-33.81 l 77.64,3.04 c 0,0 -57.81,19.95 -66.04,29.81 -2.88,3.46 -6.85,7.74 -11.08,10.84 -7.36,5.39 -17.8,-0.78 -17.13,-9.88" class="colorf8a58d svgShape"/><path fill="#df8931" d="M4656.79 2710.25c.03-1.35-15.84-2.87-35.44-2.5-19.52.35-35.35 1.08-35.39 2.5-.02 1.35 15.85 2.87 35.46 2.51 19.51-.36 35.34-1.08 35.37-2.51M4639.35 2666.91c.14-1.33-13.55-3.75-30.6-3.12-17.06.58-30.55 3.96-30.31 5.29.23 1.41 13.79.29 30.48-.28 16.69-.62 30.31-.46 30.43-1.89M4678.85 2672.44c1.15-.71-.34-4.93-4.72-7.76-4.39-2.85-8.85-2.48-9.02-1.13-.25 1.39 2.88 3.08 6.28 5.34 3.46 2.19 6.28 4.35 7.46 3.55M4647.9 2617.73c-.11-1.38-15.09-2.02-33.46-1.41-18.37.6-33.27 2.22-33.28 3.6-.02 1.39 14.96 2.02 33.45 1.41 18.48-.6 33.39-2.22 33.29-3.6M4692.26 2638.48c.62.18 1.83-1.38 2.2-4.44.39-2.98-.34-7.5-3.35-11.34-3.02-3.83-7.24-5.6-10.23-5.93-3.06-.35-4.86.45-4.84 1.1-.04 1.36 6.69 2.23 11.13 7.93 4.5 5.65 3.76 12.39 5.09 12.68M4659.62 2569.57c-.17-1.38-13.68-.84-30.18 1.2-16.5 2.04-29.74 4.81-29.57 6.19.17 1.37 13.68.83 30.19-1.21 16.49-2.04 29.72-4.81 29.56-6.18M4702.94 2594.05c.64.09 1.6-1.61 1.51-4.62-.06-2.98-1.42-7.04-4.16-10.55-5.68-6.87-12.06-9.36-12.77-8.43-1 1.19 4.12 5.75 8.81 11.51 4.77 5.79 5.32 11.86 6.61 12.09" class="colorf68260 svgShape"/><path fill="#f0983d" d="m 5672.13,2117.99 c 27.43,2.44 53.28,18.72 67.32,42.41 1.59,2.69 2.96,6.35 0.88,8.67 -1.4,1.58 -3.76,1.74 -5.87,1.77 -21.69,0.2 -43.41,-3.52 -63.79,-10.94 -2.31,-0.85 -4.86,-1.97 -5.72,-4.28 -0.63,-1.67 -0.19,-3.53 0.26,-5.26 2.74,-10.52 5.46,-21.02 8.2,-31.54 l -1.28,-0.83" class="colorf03d5f svgShape"/><path fill="#aa530e" d="m 5672.13,2117.99 1.28,0.83 v 0 c -2.5,9.62 -5,19.22 -7.49,28.84 -0.24,0.9 -0.47,1.8 -0.71,2.7 -0.29,1.11 -0.57,2.27 -0.57,3.4 0,0.63 0.08,1.26 0.31,1.86 0.86,2.31 3.41,3.43 5.72,4.28 19.87,7.23 41.02,10.95 62.17,10.95 0.54,0 1.08,0 1.62,-0.01 2.11,-0.03 4.47,-0.19 5.87,-1.77 0.76,-0.85 1.06,-1.88 1.06,-2.98 -0.01,-1.9 -0.93,-3.99 -1.94,-5.69 -8.47,-14.29 -21.24,-25.88 -36.05,-33.37 -9.75,-4.92 -20.39,-8.07 -31.27,-9.04" class="color9c2438 svgShape"/><path fill="#e8e5e5" d="m 5016.64,3216.25 c 0,0 -31.96,-107.29 -23.16,-101.19 8.81,6.09 27.91,23.03 27.91,23.03 l -4.75,78.16" class="colore7e8e5 svgShape"/><path fill="#2f2217" d="M 5018.48,3166.78 5001,3125.02 c -1.68,-4.36 -2.8,-8.86 -3.38,-13.5 -1.44,-11.7 -3.11,-33.15 3.85,-34.64 9.62,-2.06 18.69,7.72 18.69,7.72 l -1.68,82.18" class="color17282f svgShape"/><path fill="#2f2217" d="m 5560.49,3160.19 c 0,0 -170.96,66.71 -265.63,7.8 -94.66,-58.9 -111.9,-152.89 -168.28,-152.89 -109.94,0 -106.42,77.58 -106.42,77.58 l -23.37,-7.08 c -0.45,-15.87 -25.48,-129.84 90.38,-143.96 115.86,-14.13 164.55,143.81 268.78,143.96 104.22,0.15 183.35,-56.37 183.35,-56.37 l 74.88,47.36 -53.69,83.6" class="color17282f svgShape"/><path fill="#5f4633" d="m 5121.81,2943.52 c 0,0 42.63,21.85 65.95,75.67 26.55,61.27 83.58,131.23 131.17,148.8 47.61,17.58 157.76,29.85 233.83,-19.73 l 48.72,-65.82 -63.25,-41.03 c 0,0 -50,27.47 -111.46,44.63 -78.63,21.95 -126.41,-2.84 -172.12,-46.1 -2.85,-2.69 -5.45,-5.35 -7.73,-7.93 -11.53,-13.1 -43.42,-43.43 -72.36,-64.07 -22.36,-15.95 -42.57,-24.6 -52.75,-24.42" class="color33535f svgShape"/><path fill="#f0983d" d="m 1581.89,3874.33 c -101.4,-15.62 -175.74,69.55 -199.45,145.39 -21.88,70 -32.29,142.83 -63.03,209.42 -42.96,93.05 -156.77,136.06 -258.9,127.45 C 958.367,4348 855.445,4296.81 765.082,4248.44 l 24.926,-560.17 c 0,0 196.789,209.55 291.352,213.37 157.77,6.37 149.17,-252.97 302.38,-291.26 0,0 214.78,-58.23 359.99,129.33 92.16,119.04 100.32,263.65 100.32,263.65 0,0 -70.59,-99.52 -262.16,-129.03" class="colorf03d5f svgShape"/><path fill="#2f2217" d="m 760.945,4341.38 c 1.383,0.06 28.981,-594.79 61.629,-1328.45 32.656,-733.93 58.004,-1328.74 56.621,-1328.81 -1.382,-0.06 -28.972,594.66 -61.632,1328.58 -32.653,733.67 -58.004,1328.62 -56.618,1328.68" class="color17282f svgShape"/><path fill="#da7c31" d="m 1440.41,3709.43 c -10.5,0 -19.73,2.9 -28.24,12.2 -11.87,12.98 -27.66,28.6 -36.67,43.94 -46.29,78.88 -69.19,191.69 -72.95,280.93 v 11.97 c 13.99,-52.42 45.37,-122.41 74.57,-168.14 29.21,-45.73 73.5,-84.24 126.62,-95.3 9.61,-2.01 19.56,-3.15 28.42,-7.39 8.85,-4.23 16.64,-12.47 16.92,-22.28 0.41,-14.68 -14.76,-24.27 -27.92,-30.76 -18.74,-9.23 -37.76,-18.56 -58.29,-22.4 -8.13,-1.52 -15.57,-2.77 -22.46,-2.77" class="colorda314b svgShape"/><path fill="#2f2217" d="m 1439.67,3698.75 c -0.1,-0.14 -1.66,0.75 -4.56,2.6 -2.89,1.86 -7.01,4.81 -12.1,8.9 -10.09,8.26 -23.86,21.52 -37.41,40.63 -13.65,19.01 -26.73,43.88 -37.44,72.83 -10.8,28.95 -19.65,61.68 -27.73,96.26 -16.14,69.26 -23.25,133.43 -25.84,179.87 -1.3,23.23 -1.51,42.06 -1.49,55.06 0.13,6.04 0.24,10.99 0.33,14.98 0.14,3.42 0.29,5.21 0.46,5.21 0.18,0 0.36,-1.79 0.55,-5.21 0.16,-3.98 0.36,-8.92 0.61,-14.94 0.58,-12.98 1.34,-31.74 3.08,-54.87 3.48,-46.23 11.13,-110.03 27.19,-178.98 8.05,-34.42 16.73,-67.06 27.17,-95.78 10.37,-28.75 22.93,-53.4 36.02,-72.4 12.99,-19.11 26.17,-32.54 35.77,-41.18 9.69,-8.56 15.64,-12.62 15.39,-12.98" class="color17282f svgShape"/><path fill="#dbd8d8" d="M149.512 1565.86L1489.23 1346.53v219.33H149.512M1710.38 1070.4L3050.1 851.09V1070.4H1710.38M3260.51 596.469L4600.22 377.141V596.469H3260.51M4808.58 219.32L6148.29-.0117188V219.32H4808.58" class="colordadbd8 svgShape"/><path fill="#f0983d" d="m 149.512,1565.86 h 1339.72 v 164.27 H 149.512 Z" class="colorf03d5f svgShape"/><path fill="#ba6b2c" d="m 1071.16,1565.86 h 418.07 v 164.27 h -418.07 z" class="colorba2c42 svgShape"/><path fill="#f0983d" d="M 1710.38,1070.4 H 3050.1 v 164.281 H 1710.38 Z" class="colorf03d5f svgShape"/><path fill="#ba6b2c" d="m 2632.04,1070.4 h 418.063 v 164.281 H 2632.04 Z" class="colorba2c42 svgShape"/><path fill="#f0983d" d="M 3260.51,596.469 H 4600.22 V 760.731 H 3260.51 Z" class="colorf03d5f svgShape"/><path fill="#ba6b2c" d="m 4182.16,596.469 h 418.059 V 760.731 H 4182.16 Z" class="colorba2c42 svgShape"/><path fill="#f0983d" d="M 4810.62,219.32 H 6150.34 V 383.59 H 4810.62 Z" class="colorf03d5f svgShape"/><path fill="#ba6b2c" d="m 6150.34,219.32 h -418.06 v 164.27 h 418.06 V 219.32" class="colorba2c42 svgShape"/><path fill="#e8e5e5" d="m 5324.71,981.512 c 0,-20.114 16.31,-36.434 36.43,-36.434 20.13,0 36.44,16.32 36.44,36.434 0,20.118 -16.31,36.438 -36.44,36.438 -20.12,0 -36.43,-16.32 -36.43,-36.438" class="colore7e8e5 svgShape"/></g></svg></svg>